<svg width="438" height="58" viewBox="0 0 438 58" fill="none" xmlns="http://www.w3.org/2000/svg">
<path d="M20 1.27999C27.488 1.27999 33.6 1.984 38.336 3.392C43.136 4.8 46.848 7.456 49.472 11.36C52.16 15.264 53.504 20.864 53.504 28.16C53.504 35.968 52.096 41.92 49.28 46.016C46.464 50.048 42.688 52.736 37.952 54.08C33.216 55.36 27.232 56 20 56H0.8V1.27999H20ZM32.864 42.944C33.632 42.176 34.176 40.192 34.496 36.992C34.816 33.792 34.976 30.848 34.976 28.16C34.976 24.768 34.72 22.08 34.208 20.096C33.76 18.048 32.928 16.416 31.712 15.2C29.792 13.088 26.496 12.032 21.824 12.032C20.992 12.032 19.744 12.096 18.08 12.224V44.096C19.168 44.224 20.864 44.288 23.168 44.288C25.536 44.288 27.616 44.192 29.408 44C31.264 43.744 32.416 43.392 32.864 42.944ZM60.695 1.27999H100.535V12.8H77.975V22.784H96.983V33.152H77.975V44.288H100.439V56H60.695V1.27999ZM123.607 16.064C123.607 17.408 124.279 18.464 125.623 19.232C127.031 20 129.207 20.832 132.151 21.728C135.671 22.88 138.551 24 140.791 25.088C143.095 26.176 145.079 27.872 146.743 30.176C148.471 32.48 149.335 35.488 149.335 39.2C149.335 51.104 141.591 57.056 126.103 57.056C123.543 57.056 120.407 56.832 116.695 56.384C113.047 55.936 109.719 55.36 106.711 54.656C106.839 53.312 107.095 51.36 107.479 48.8C107.927 46.176 108.343 44.224 108.727 42.944C110.967 43.264 114.327 43.648 118.807 44.096C123.351 44.544 126.775 44.768 129.079 44.768C130.423 44.768 131.223 44.672 131.479 44.48C131.863 44.224 132.151 43.808 132.343 43.232C132.599 42.592 132.727 42.048 132.727 41.6C132.727 40.32 132.119 39.36 130.903 38.72C129.687 38.016 127.607 37.184 124.663 36.224C121.143 35.136 118.231 34.016 115.927 32.864C113.623 31.712 111.607 29.92 109.879 27.488C108.151 25.056 107.287 21.856 107.287 17.888C107.287 15.072 107.927 12.32 109.207 9.632C110.487 6.88 111.799 5.024 113.143 4.064C114.167 3.36 116.279 2.688 119.479 2.048C122.679 1.408 125.687 1.088 128.503 1.088C135.671 1.088 141.527 1.76 146.071 3.104C146.007 4.384 145.783 6.144 145.399 8.384C145.079 10.624 144.727 12.672 144.343 14.528L142.135 14.432C133.815 13.856 128.503 13.568 126.199 13.568C125.239 13.568 124.695 13.6 124.567 13.664C124.311 13.792 124.087 14.08 123.895 14.528C123.703 14.976 123.607 15.488 123.607 16.064ZM179.349 0.991999C184.533 0.991999 188.917 1.472 192.501 2.432C196.085 3.392 198.933 5.248 201.045 8C203.221 10.688 204.309 14.56 204.309 19.616C204.309 21.856 203.957 24.16 203.253 26.528C202.613 28.832 201.781 30.848 200.757 32.576C199.797 34.304 198.933 35.424 198.165 35.936C197.269 36.576 195.285 37.088 192.213 37.472C189.141 37.792 185.525 37.952 181.365 37.952C179.893 37.952 177.621 37.888 174.549 37.76V56H157.269V1.27999C163.989 1.088 171.349 0.991999 179.349 0.991999ZM186.549 25.664C187.189 24.832 187.509 23.168 187.509 20.672C187.509 17.408 186.805 15.104 185.397 13.76C184.053 12.416 181.685 11.744 178.293 11.744C177.141 11.744 175.893 11.84 174.549 12.032V26.624C175.189 26.688 176.437 26.72 178.293 26.72C183.221 26.72 185.973 26.368 186.549 25.664ZM210.521 1.27999H227.801V56H210.521V1.27999ZM237.039 1.27999H276.879V12.8H254.319V22.784H273.327V33.152H254.319V44.288H276.783V56H237.039V1.27999ZM334.03 56H315.886L312.622 42.176C312.494 41.664 312.27 40.8 311.95 39.584C311.694 38.304 311.374 37.376 310.99 36.8C310.606 36.16 310.062 35.744 309.358 35.552C307.566 35.616 304.942 35.648 301.486 35.648V56H284.206V1.76C291.95 1.184 299.182 0.896 305.902 0.896C311.982 0.896 316.91 1.408 320.686 2.432C324.462 3.392 327.278 5.088 329.134 7.52C331.054 9.888 332.014 13.152 332.014 17.312C332.014 21.216 331.118 24.288 329.326 26.528C327.534 28.704 324.654 30.016 320.686 30.464V31.04C322.926 31.232 324.782 31.968 326.254 33.248C327.79 34.464 328.814 36.032 329.326 37.952L334.03 56ZM301.486 24.8C302.062 24.864 303.182 24.896 304.846 24.896C309.774 24.896 312.654 24.48 313.486 23.648C314.254 22.88 314.638 21.088 314.638 18.272C314.638 15.648 313.934 13.856 312.526 12.896C311.182 11.936 308.942 11.456 305.806 11.456C305.102 11.456 303.662 11.52 301.486 11.648V24.8ZM368.598 56H351.318V13.28H335.862V1.27999H384.054V13.28H368.598V56ZM417.136 44H401.2L398.32 56H380.656L398.32 1.27999H420.88L437.776 56H420.016L417.136 44ZM409.072 13.088L403.408 33.344H414.832L409.456 13.088H409.072Z" fill="#8EEBFF"/>
</svg>
